<?xml version="1.0" encoding="UTF-8"?>
<svg id="Layer_1" data-name="Layer 1" xmlns="http://www.w3.org/2000/svg" xmlns:xlink="http://www.w3.org/1999/xlink" viewBox="0 0 2013.66 1327.86">
  <defs>
    <style>
      .cls-1 {
        fill: none;
      }

      .cls-2 {
        clip-path: url(#clippath);
      }

      .cls-3 {
        font-family: SourceSerifRoman-Bold, 'Source Serif Variable';
        font-variation-settings: 'wght' 700;
        font-weight: 700;
      }

      .cls-3, .cls-4, .cls-5 {
        fill: #201e1e;
      }

      .cls-3, .cls-5 {
        font-size: 170px;
      }

      .cls-6 {
        clip-path: url(#clippath-1);
      }

      .cls-5 {
        font-family: SourceSansRoman-Regular, 'Source Sans Variable';
        font-variation-settings: 'wght' 400;
      }
    </style>
    <clipPath id="clippath">
      <path class="cls-1" d="M914.37,293.75c-32.47-33.62-73.23-52.05-84.34-56.96-45.01-19.91-68.69-16.21-85.5-39.9-21.7-30.59-6.52-71.96-5.7-74.1,16.18-42.19,65.8-54.79,74.1-57,110.17-29.38,261.82,111.02,327.74,247.94,28.76,59.74,35.85,107.71,39.9,136.8,6.98,50.17,22.82,164.06-31.35,196.65-24.9,14.98-57.79,8.69-88.35,2.85-26.57-5.08-53.19-10.17-68.4-31.35-12.91-17.99-9.22-35.91-8.55-76.95,.66-40.35-1.98-80.57-5.7-105.45-3.39-22.68-13.5-90.39-63.86-142.54Z"/>
    </clipPath>
    <clipPath id="clippath-1">
      <path class="cls-1" d="M1056.19,220.32c-32.47-33.62-73.23-52.05-84.34-56.96-45.01-19.91-68.69-16.21-85.5-39.9-21.7-30.59-6.52-71.96-5.7-74.1,16.18-42.19,65.8-54.79,74.1-57,110.17-29.38,261.82,111.02,327.74,247.94,28.76,59.74,35.85,107.71,39.9,136.8,6.98,50.17,22.82,164.06-31.35,196.65-24.9,14.98-57.79,8.69-88.35,2.85-26.57-5.08-53.19-10.17-68.4-31.35-12.91-17.99-9.22-35.91-8.55-76.95,.66-40.35-1.98-80.57-5.7-105.45-3.39-22.68-13.5-90.39-63.86-142.54Z"/>
    </clipPath>
  </defs>
  <text class="cls-5" transform="translate(167.47 449.72) rotate(-51.62)"><tspan x="0" y="0">I</tspan></text>
  <text class="cls-5" transform="translate(193.04 417.54) rotate(-47.75)"><tspan x="0" y="0"> </tspan></text>
  <text class="cls-5" transform="translate(211.32 394.51) rotate(-41.39)"><tspan x="0" y="0">d</tspan></text>
  <text class="cls-5" transform="translate(277.28 336.07) rotate(-31.78)"><tspan x="0" y="0">e</tspan></text>
  <text class="cls-5" transform="translate(343.79 294.81) rotate(-22.62)"><tspan x="0" y="0">s</tspan></text>
  <text class="cls-5" transform="translate(405.07 269.9) rotate(-15.66)"><tspan x="0" y="0">i</tspan></text>
  <text class="cls-5" transform="translate(439.62 258.24) rotate(-7.68)"><tspan x="0" y="0">g</tspan></text>
  <text class="cls-5" transform="translate(517.78 246.81) rotate(3.14)"><tspan x="0" y="0">n</tspan></text>
  <text class="cls-5" transform="translate(605.26 253.16) rotate(10.37)"><tspan x="0" y="0"> </tspan></text>
  <text class="cls-3" transform="translate(634.68 257.72) rotate(15.66)"><tspan x="0" y="0">t</tspan></text>
  <text class="cls-3" transform="translate(688.12 270.19) rotate(25.27)"><tspan x="0" y="0">h</tspan></text>
  <text class="cls-3" transform="translate(776.33 312.28) rotate(36.88)"><tspan x="0" y="0">r</tspan></text>
  <text class="cls-3" transform="translate(834.35 356.36) rotate(46.15)"><tspan x="0" y="0">i</tspan></text>
  <text class="cls-3" transform="translate(868.04 390.71) rotate(54.36)"><tspan x="0" y="0">l</tspan></text>
  <text class="cls-3" transform="translate(896.95 429.54) rotate(64.52)"><tspan x="0" y="0">l</tspan></text>
  <text class="cls-3" transform="translate(918.03 472.45) rotate(75.92)"><tspan x="0" y="0">i</tspan></text>
  <text class="cls-3" transform="translate(930.92 517.91) rotate(86.36)"><tspan x="0" y="0">n</tspan></text>
  <text class="cls-3" transform="translate(936.26 621.74) rotate(85.77)"><tspan x="0" y="0">g</tspan></text>
  <text class="cls-5" transform="translate(943.97 715.68) rotate(82.84)"><tspan x="0" y="0"> </tspan></text>
  <text class="cls-5" transform="translate(947.78 751.51) rotate(79.86)"><tspan x="0" y="0">u</tspan></text>
  <text class="cls-5" transform="translate(964.99 844.63) rotate(76.66)"><tspan x="0" y="0">s</tspan></text>
  <text class="cls-5" transform="translate(981.08 912.5) rotate(75.88)"><tspan x="0" y="0">e</tspan></text>
  <text class="cls-5" transform="translate(1001.86 995.28) rotate(73.45)"><tspan x="0" y="0">r</tspan></text>
  <text class="cls-5" transform="translate(1019.86 1054.88) rotate(69.5)"><tspan x="0" y="0"> </tspan></text>
  <text class="cls-5" transform="translate(1034.49 1100.03) rotate(57.94)"><tspan x="0" y="0">e</tspan></text>
  <text class="cls-5" transform="translate(1097.55 1188.84) rotate(36.52)"><tspan x="0" y="0">x</tspan></text>
  <text class="cls-5" transform="translate(1175.08 1243.72) rotate(20.41)"><tspan x="0" y="0">p</tspan></text>
  <text class="cls-5" transform="translate(1277.79 1279.23) rotate(7.85)"><tspan x="0" y="0">e</tspan></text>
  <text class="cls-5" transform="translate(1370.2 1290.31) rotate(-.42)"><tspan x="0" y="0">r</tspan></text>
  <text class="cls-5" transform="translate(1434.12 1289.2) rotate(-5.71)"><tspan x="0" y="0">i</tspan></text>
  <text class="cls-5" transform="translate(1482.31 1285.2) rotate(-12.16)"><tspan x="0" y="0">e</tspan></text>
  <text class="cls-5" transform="translate(1574.56 1264.91) rotate(-21.43)"><tspan x="0" y="0">n</tspan></text>
  <text class="cls-5" transform="translate(1670.46 1225.75) rotate(-31.12)"><tspan x="0" y="0">c</tspan></text>
  <text class="cls-5" transform="translate(1742.8 1181.77) rotate(-40.82)"><tspan x="0" y="0">e</tspan></text>
  <text class="cls-5" transform="translate(1813.52 1118.71) rotate(-50.39)"><tspan x="0" y="0">s</tspan></text>
  <path class="cls-4" d="M1129.49,383.71c1.93,0,1.93-3,0-3s-1.93,3,0,3h0Z"/>
  <g class="cls-2">
    <text class="cls-5" transform="translate(279.62 374.28) rotate(-51.62)"><tspan x="0" y="0">I</tspan></text>
    <text class="cls-5" transform="translate(305.19 342.11) rotate(-47.75)"><tspan x="0" y="0"> </tspan></text>
    <text class="cls-5" transform="translate(323.47 319.07) rotate(-41.39)"><tspan x="0" y="0">d</tspan></text>
    <text class="cls-5" transform="translate(389.43 260.64) rotate(-31.78)"><tspan x="0" y="0">e</tspan></text>
    <text class="cls-5" transform="translate(455.94 219.38) rotate(-22.62)"><tspan x="0" y="0">s</tspan></text>
    <text class="cls-5" transform="translate(517.22 194.46) rotate(-15.66)"><tspan x="0" y="0">i</tspan></text>
    <text class="cls-5" transform="translate(551.77 182.8) rotate(-7.68)"><tspan x="0" y="0">g</tspan></text>
    <text class="cls-5" transform="translate(629.93 171.37) rotate(3.14)"><tspan x="0" y="0">n</tspan></text>
    <text class="cls-5" transform="translate(717.41 177.73) rotate(10.37)"><tspan x="0" y="0"> </tspan></text>
    <text class="cls-3" transform="translate(746.83 182.28) rotate(15.66)"><tspan x="0" y="0">t</tspan></text>
    <text class="cls-3" transform="translate(800.27 194.75) rotate(25.27)"><tspan x="0" y="0">h</tspan></text>
    <text class="cls-3" transform="translate(888.48 236.84) rotate(36.88)"><tspan x="0" y="0">r</tspan></text>
    <text class="cls-3" transform="translate(946.5 280.92) rotate(46.15)"><tspan x="0" y="0">i</tspan></text>
    <text class="cls-3" transform="translate(980.19 315.27) rotate(54.36)"><tspan x="0" y="0">l</tspan></text>
    <text class="cls-3" transform="translate(1009.1 354.1) rotate(64.52)"><tspan x="0" y="0">l</tspan></text>
    <text class="cls-3" transform="translate(1030.18 397.01) rotate(75.92)"><tspan x="0" y="0">i</tspan></text>
    <text class="cls-3" transform="translate(1043.07 442.47) rotate(86.36)"><tspan x="0" y="0">n</tspan></text>
    <text class="cls-3" transform="translate(1048.41 546.3) rotate(85.77)"><tspan x="0" y="0">g</tspan></text>
    <text class="cls-5" transform="translate(1056.12 640.24) rotate(82.84)"><tspan x="0" y="0"> </tspan></text>
    <text class="cls-5" transform="translate(1059.93 676.07) rotate(79.86)"><tspan x="0" y="0">u</tspan></text>
    <text class="cls-5" transform="translate(1077.14 769.2) rotate(76.66)"><tspan x="0" y="0">s</tspan></text>
    <text class="cls-5" transform="translate(1093.23 837.06) rotate(75.88)"><tspan x="0" y="0">e</tspan></text>
    <text class="cls-5" transform="translate(1114.01 919.85) rotate(73.45)"><tspan x="0" y="0">r</tspan></text>
    <text class="cls-5" transform="translate(1132.01 979.45) rotate(69.5)"><tspan x="0" y="0"> </tspan></text>
    <text class="cls-5" transform="translate(1146.64 1024.59) rotate(57.94)"><tspan x="0" y="0">e</tspan></text>
    <text class="cls-5" transform="translate(1209.7 1113.4) rotate(36.52)"><tspan x="0" y="0">x</tspan></text>
    <text class="cls-5" transform="translate(1287.23 1168.29) rotate(20.41)"><tspan x="0" y="0">p</tspan></text>
    <text class="cls-5" transform="translate(1389.94 1203.8) rotate(7.85)"><tspan x="0" y="0">e</tspan></text>
    <text class="cls-5" transform="translate(1482.35 1214.87) rotate(-.42)"><tspan x="0" y="0">r</tspan></text>
    <text class="cls-5" transform="translate(1546.27 1213.76) rotate(-5.71)"><tspan x="0" y="0">i</tspan></text>
    <text class="cls-5" transform="translate(1594.46 1209.77) rotate(-12.16)"><tspan x="0" y="0">e</tspan></text>
    <text class="cls-5" transform="translate(1686.71 1189.47) rotate(-21.43)"><tspan x="0" y="0">n</tspan></text>
    <text class="cls-5" transform="translate(1782.61 1150.31) rotate(-31.12)"><tspan x="0" y="0">c</tspan></text>
    <text class="cls-5" transform="translate(1854.95 1106.34) rotate(-40.82)"><tspan x="0" y="0">e</tspan></text>
    <text class="cls-5" transform="translate(1925.67 1043.27) rotate(-50.39)"><tspan x="0" y="0">s</tspan></text>
  </g>
  <g class="cls-6">
    <text class="cls-5" transform="translate(402.1 305.54) rotate(-51.62)"><tspan x="0" y="0">I</tspan></text>
    <text class="cls-5" transform="translate(427.67 273.36) rotate(-47.75)"><tspan x="0" y="0"> </tspan></text>
    <text class="cls-5" transform="translate(445.94 250.33) rotate(-41.39)"><tspan x="0" y="0">d</tspan></text>
    <text class="cls-5" transform="translate(511.91 191.89) rotate(-31.78)"><tspan x="0" y="0">e</tspan></text>
    <text class="cls-5" transform="translate(578.42 150.63) rotate(-22.62)"><tspan x="0" y="0">s</tspan></text>
    <text class="cls-5" transform="translate(639.69 125.72) rotate(-15.66)"><tspan x="0" y="0">i</tspan></text>
    <text class="cls-5" transform="translate(674.25 114.06) rotate(-7.68)"><tspan x="0" y="0">g</tspan></text>
    <text class="cls-5" transform="translate(752.41 102.63) rotate(3.14)"><tspan x="0" y="0">n</tspan></text>
    <text class="cls-5" transform="translate(839.89 108.98) rotate(10.37)"><tspan x="0" y="0"> </tspan></text>
    <text class="cls-3" transform="translate(869.31 113.54) rotate(15.66)"><tspan x="0" y="0">t</tspan></text>
    <text class="cls-3" transform="translate(922.75 126.01) rotate(25.27)"><tspan x="0" y="0">h</tspan></text>
    <text class="cls-3" transform="translate(1010.95 168.09) rotate(36.88)"><tspan x="0" y="0">r</tspan></text>
    <text class="cls-3" transform="translate(1068.98 212.17) rotate(46.15)"><tspan x="0" y="0">i</tspan></text>
    <text class="cls-3" transform="translate(1102.66 246.52) rotate(54.36)"><tspan x="0" y="0">l</tspan></text>
    <text class="cls-3" transform="translate(1131.57 285.36) rotate(64.52)"><tspan x="0" y="0">l</tspan></text>
    <text class="cls-3" transform="translate(1152.66 328.27) rotate(75.92)"><tspan x="0" y="0">i</tspan></text>
    <text class="cls-3" transform="translate(1165.55 373.73) rotate(86.36)"><tspan x="0" y="0">n</tspan></text>
    <text class="cls-3" transform="translate(1170.89 477.55) rotate(85.77)"><tspan x="0" y="0">g</tspan></text>
    <text class="cls-5" transform="translate(1178.59 571.49) rotate(82.84)"><tspan x="0" y="0"> </tspan></text>
    <text class="cls-5" transform="translate(1182.41 607.33) rotate(79.86)"><tspan x="0" y="0">u</tspan></text>
    <text class="cls-5" transform="translate(1199.62 700.45) rotate(76.66)"><tspan x="0" y="0">s</tspan></text>
    <text class="cls-5" transform="translate(1215.71 768.31) rotate(75.88)"><tspan x="0" y="0">e</tspan></text>
    <text class="cls-5" transform="translate(1236.49 851.1) rotate(73.45)"><tspan x="0" y="0">r</tspan></text>
    <text class="cls-5" transform="translate(1254.49 910.7) rotate(69.5)"><tspan x="0" y="0"> </tspan></text>
    <text class="cls-5" transform="translate(1269.11 955.85) rotate(57.94)"><tspan x="0" y="0">e</tspan></text>
    <text class="cls-5" transform="translate(1332.18 1044.66) rotate(36.52)"><tspan x="0" y="0">x</tspan></text>
    <text class="cls-5" transform="translate(1409.7 1099.54) rotate(20.41)"><tspan x="0" y="0">p</tspan></text>
    <text class="cls-5" transform="translate(1512.41 1135.05) rotate(7.85)"><tspan x="0" y="0">e</tspan></text>
    <text class="cls-5" transform="translate(1604.83 1146.12) rotate(-.42)"><tspan x="0" y="0">r</tspan></text>
    <text class="cls-5" transform="translate(1668.75 1145.01) rotate(-5.71)"><tspan x="0" y="0">i</tspan></text>
    <text class="cls-5" transform="translate(1716.94 1141.02) rotate(-12.16)"><tspan x="0" y="0">e</tspan></text>
    <text class="cls-5" transform="translate(1809.19 1120.73) rotate(-21.43)"><tspan x="0" y="0">n</tspan></text>
    <text class="cls-5" transform="translate(1905.09 1081.57) rotate(-31.12)"><tspan x="0" y="0">c</tspan></text>
    <text class="cls-5" transform="translate(1977.42 1037.59) rotate(-40.82)"><tspan x="0" y="0">e</tspan></text>
    <text class="cls-5" transform="translate(2048.15 974.53) rotate(-50.39)"><tspan x="0" y="0">s</tspan></text>
  </g>
</svg>